<mxfile host="app.diagrams.net" modified="2023-04-05T04:49:20.725Z" agent="Mozilla/5.0 (Windows NT 10.0; Win64; x64) AppleWebKit/537.36 (KHTML, like Gecko) Chrome/111.0.0.0 Safari/537.36" etag="4LNAmqpg9_LEeuPyAJNE" version="21.1.4" type="github" pages="3">
  <diagram name="第 1 页" id="KgJZ5N0K1NzEe5FZhcLB">
    <mxGraphModel dx="1434" dy="756" grid="1" gridSize="10" guides="1" tooltips="1" connect="1" arrows="1" fold="1" page="1" pageScale="1" pageWidth="827" pageHeight="1169" math="0" shadow="0">
      <root>
        <mxCell id="0" />
        <mxCell id="1" parent="0" />
        <mxCell id="i2CIsJXctreRj3t1FQU6-18" value="" style="rounded=1;whiteSpace=wrap;html=1;" parent="1" vertex="1">
          <mxGeometry x="150" y="460" width="580" height="110" as="geometry" />
        </mxCell>
        <mxCell id="i2CIsJXctreRj3t1FQU6-7" style="edgeStyle=orthogonalEdgeStyle;rounded=0;orthogonalLoop=1;jettySize=auto;html=1;" parent="1" source="i2CIsJXctreRj3t1FQU6-1" target="i2CIsJXctreRj3t1FQU6-4" edge="1">
          <mxGeometry relative="1" as="geometry" />
        </mxCell>
        <mxCell id="i2CIsJXctreRj3t1FQU6-1" value="u1、u10、u11" style="rounded=1;whiteSpace=wrap;html=1;" parent="1" vertex="1">
          <mxGeometry x="120" y="120" width="120" height="60" as="geometry" />
        </mxCell>
        <mxCell id="i2CIsJXctreRj3t1FQU6-8" style="edgeStyle=orthogonalEdgeStyle;rounded=0;orthogonalLoop=1;jettySize=auto;html=1;" parent="1" source="i2CIsJXctreRj3t1FQU6-2" target="i2CIsJXctreRj3t1FQU6-5" edge="1">
          <mxGeometry relative="1" as="geometry" />
        </mxCell>
        <mxCell id="i2CIsJXctreRj3t1FQU6-2" value="u2、u3、u9" style="rounded=1;whiteSpace=wrap;html=1;" parent="1" vertex="1">
          <mxGeometry x="354" y="120" width="120" height="60" as="geometry" />
        </mxCell>
        <mxCell id="i2CIsJXctreRj3t1FQU6-9" style="edgeStyle=orthogonalEdgeStyle;rounded=0;orthogonalLoop=1;jettySize=auto;html=1;" parent="1" source="i2CIsJXctreRj3t1FQU6-3" target="i2CIsJXctreRj3t1FQU6-6" edge="1">
          <mxGeometry relative="1" as="geometry" />
        </mxCell>
        <mxCell id="i2CIsJXctreRj3t1FQU6-3" value="uN" style="rounded=1;whiteSpace=wrap;html=1;" parent="1" vertex="1">
          <mxGeometry x="600" y="120" width="120" height="60" as="geometry" />
        </mxCell>
        <mxCell id="i2CIsJXctreRj3t1FQU6-22" style="edgeStyle=orthogonalEdgeStyle;curved=1;rounded=0;orthogonalLoop=1;jettySize=auto;html=1;entryX=0.5;entryY=0;entryDx=0;entryDy=0;" parent="1" source="i2CIsJXctreRj3t1FQU6-4" target="i2CIsJXctreRj3t1FQU6-19" edge="1">
          <mxGeometry relative="1" as="geometry" />
        </mxCell>
        <mxCell id="i2CIsJXctreRj3t1FQU6-4" value="netty 1" style="rounded=1;whiteSpace=wrap;html=1;" parent="1" vertex="1">
          <mxGeometry x="120" y="340" width="120" height="60" as="geometry" />
        </mxCell>
        <mxCell id="i2CIsJXctreRj3t1FQU6-5" value="netty 2" style="rounded=1;whiteSpace=wrap;html=1;" parent="1" vertex="1">
          <mxGeometry x="354" y="340" width="120" height="60" as="geometry" />
        </mxCell>
        <mxCell id="i2CIsJXctreRj3t1FQU6-6" value="netty N" style="rounded=1;whiteSpace=wrap;html=1;" parent="1" vertex="1">
          <mxGeometry x="600" y="340" width="120" height="60" as="geometry" />
        </mxCell>
        <mxCell id="i2CIsJXctreRj3t1FQU6-24" style="edgeStyle=orthogonalEdgeStyle;curved=1;rounded=0;orthogonalLoop=1;jettySize=auto;html=1;" parent="1" source="i2CIsJXctreRj3t1FQU6-19" target="i2CIsJXctreRj3t1FQU6-5" edge="1">
          <mxGeometry relative="1" as="geometry">
            <Array as="points">
              <mxPoint x="380" y="510" />
            </Array>
          </mxGeometry>
        </mxCell>
        <mxCell id="i2CIsJXctreRj3t1FQU6-19" value="u2：netty2" style="rounded=1;whiteSpace=wrap;html=1;" parent="1" vertex="1">
          <mxGeometry x="180" y="485" width="120" height="60" as="geometry" />
        </mxCell>
        <mxCell id="i2CIsJXctreRj3t1FQU6-20" value="u10: netty1" style="rounded=1;whiteSpace=wrap;html=1;" parent="1" vertex="1">
          <mxGeometry x="364" y="485" width="120" height="60" as="geometry" />
        </mxCell>
        <mxCell id="i2CIsJXctreRj3t1FQU6-21" value="uN：netty N" style="rounded=1;whiteSpace=wrap;html=1;" parent="1" vertex="1">
          <mxGeometry x="550" y="485" width="120" height="60" as="geometry" />
        </mxCell>
        <mxCell id="i2CIsJXctreRj3t1FQU6-23" value="路由层" style="text;html=1;align=center;verticalAlign=middle;resizable=0;points=[];autosize=1;strokeColor=none;fillColor=none;" parent="1" vertex="1">
          <mxGeometry x="80" y="485" width="60" height="30" as="geometry" />
        </mxCell>
      </root>
    </mxGraphModel>
  </diagram>
  <diagram id="otvV1LzHvfoRvh3_C27w" name="第 2 页">
    <mxGraphModel dx="1434" dy="756" grid="1" gridSize="10" guides="1" tooltips="1" connect="1" arrows="1" fold="1" page="1" pageScale="1" pageWidth="827" pageHeight="1169" math="0" shadow="0">
      <root>
        <mxCell id="0" />
        <mxCell id="1" parent="0" />
        <mxCell id="0E8rnc2k6nuiJqw-8PHG-33" value="群成员 A" style="rounded=1;whiteSpace=wrap;html=1;shadow=1;" parent="1" vertex="1">
          <mxGeometry x="481" y="1382.5" width="120" height="60" as="geometry" />
        </mxCell>
        <mxCell id="0E8rnc2k6nuiJqw-8PHG-34" value="群成员 B" style="rounded=1;whiteSpace=wrap;html=1;shadow=1;" parent="1" vertex="1">
          <mxGeometry x="571" y="1382.5" width="120" height="60" as="geometry" />
        </mxCell>
        <mxCell id="0E8rnc2k6nuiJqw-8PHG-35" value="群成员 C" style="rounded=1;whiteSpace=wrap;html=1;shadow=1;" parent="1" vertex="1">
          <mxGeometry x="661" y="1382.5" width="120" height="60" as="geometry" />
        </mxCell>
        <mxCell id="0E8rnc2k6nuiJqw-8PHG-30" value="群成员 A" style="rounded=1;whiteSpace=wrap;html=1;shadow=1;" parent="1" vertex="1">
          <mxGeometry x="481" y="1337.5" width="120" height="60" as="geometry" />
        </mxCell>
        <mxCell id="0E8rnc2k6nuiJqw-8PHG-31" value="群成员 B" style="rounded=1;whiteSpace=wrap;html=1;shadow=1;" parent="1" vertex="1">
          <mxGeometry x="571" y="1337.5" width="120" height="60" as="geometry" />
        </mxCell>
        <mxCell id="0E8rnc2k6nuiJqw-8PHG-32" value="群成员 C" style="rounded=1;whiteSpace=wrap;html=1;shadow=1;" parent="1" vertex="1">
          <mxGeometry x="661" y="1337.5" width="120" height="60" as="geometry" />
        </mxCell>
        <mxCell id="vJg0_uW5ztC2640ju3Qo-4" style="edgeStyle=orthogonalEdgeStyle;rounded=0;orthogonalLoop=1;jettySize=auto;html=1;" parent="1" source="vJg0_uW5ztC2640ju3Qo-1" target="vJg0_uW5ztC2640ju3Qo-3" edge="1">
          <mxGeometry relative="1" as="geometry" />
        </mxCell>
        <mxCell id="vJg0_uW5ztC2640ju3Qo-1" value="clientA" style="rounded=1;whiteSpace=wrap;html=1;" parent="1" vertex="1">
          <mxGeometry x="90" y="170" width="120" height="60" as="geometry" />
        </mxCell>
        <mxCell id="vJg0_uW5ztC2640ju3Qo-3" value="clientB" style="rounded=1;whiteSpace=wrap;html=1;" parent="1" vertex="1">
          <mxGeometry x="460" y="170" width="120" height="60" as="geometry" />
        </mxCell>
        <mxCell id="vJg0_uW5ztC2640ju3Qo-6" value="ios：clientB" style="rounded=1;whiteSpace=wrap;html=1;" parent="1" vertex="1">
          <mxGeometry x="460" y="510" width="120" height="60" as="geometry" />
        </mxCell>
        <mxCell id="vJg0_uW5ztC2640ju3Qo-9" value="android：clientA" style="rounded=1;whiteSpace=wrap;html=1;" parent="1" vertex="1">
          <mxGeometry x="89" y="510" width="120" height="60" as="geometry" />
        </mxCell>
        <mxCell id="vJg0_uW5ztC2640ju3Qo-10" value="简易聊天室设计消息收发" style="text;html=1;align=center;verticalAlign=middle;resizable=0;points=[];autosize=1;strokeColor=none;fillColor=none;" parent="1" vertex="1">
          <mxGeometry x="254" y="130" width="160" height="30" as="geometry" />
        </mxCell>
        <mxCell id="vJg0_uW5ztC2640ju3Qo-11" value="send" style="text;html=1;align=center;verticalAlign=middle;resizable=0;points=[];autosize=1;strokeColor=none;fillColor=none;" parent="1" vertex="1">
          <mxGeometry x="310" y="170" width="50" height="30" as="geometry" />
        </mxCell>
        <mxCell id="vJg0_uW5ztC2640ju3Qo-12" style="edgeStyle=orthogonalEdgeStyle;rounded=0;orthogonalLoop=1;jettySize=auto;html=1;" parent="1" source="vJg0_uW5ztC2640ju3Qo-13" target="vJg0_uW5ztC2640ju3Qo-14" edge="1">
          <mxGeometry relative="1" as="geometry" />
        </mxCell>
        <mxCell id="vJg0_uW5ztC2640ju3Qo-17" style="rounded=0;orthogonalLoop=1;jettySize=auto;html=1;exitX=1;exitY=1;exitDx=0;exitDy=0;entryX=0;entryY=0;entryDx=0;entryDy=0;fillColor=#f8cecc;strokeColor=#b85450;strokeWidth=2;" parent="1" source="vJg0_uW5ztC2640ju3Qo-13" target="vJg0_uW5ztC2640ju3Qo-6" edge="1">
          <mxGeometry relative="1" as="geometry" />
        </mxCell>
        <mxCell id="vJg0_uW5ztC2640ju3Qo-19" style="edgeStyle=orthogonalEdgeStyle;rounded=0;orthogonalLoop=1;jettySize=auto;html=1;exitX=0.5;exitY=1;exitDx=0;exitDy=0;fillColor=#f8cecc;strokeColor=#b85450;strokeWidth=2;" parent="1" source="vJg0_uW5ztC2640ju3Qo-13" target="vJg0_uW5ztC2640ju3Qo-9" edge="1">
          <mxGeometry relative="1" as="geometry" />
        </mxCell>
        <mxCell id="vJg0_uW5ztC2640ju3Qo-13" value="ios：clientA" style="rounded=1;whiteSpace=wrap;html=1;" parent="1" vertex="1">
          <mxGeometry x="89" y="340" width="120" height="60" as="geometry" />
        </mxCell>
        <mxCell id="vJg0_uW5ztC2640ju3Qo-14" value="android：clientB" style="rounded=1;whiteSpace=wrap;html=1;" parent="1" vertex="1">
          <mxGeometry x="459" y="340" width="120" height="60" as="geometry" />
        </mxCell>
        <mxCell id="vJg0_uW5ztC2640ju3Qo-15" value="如何实现多端消息同步" style="text;html=1;align=center;verticalAlign=middle;resizable=0;points=[];autosize=1;strokeColor=none;fillColor=none;" parent="1" vertex="1">
          <mxGeometry x="263" y="300" width="140" height="30" as="geometry" />
        </mxCell>
        <mxCell id="vJg0_uW5ztC2640ju3Qo-16" value="send" style="text;html=1;align=center;verticalAlign=middle;resizable=0;points=[];autosize=1;strokeColor=none;fillColor=none;" parent="1" vertex="1">
          <mxGeometry x="309" y="340" width="50" height="30" as="geometry" />
        </mxCell>
        <mxCell id="vJg0_uW5ztC2640ju3Qo-18" value="send" style="text;html=1;align=center;verticalAlign=middle;resizable=0;points=[];autosize=1;strokeColor=none;fillColor=none;rotation=30;" parent="1" vertex="1">
          <mxGeometry x="295" y="425" width="50" height="30" as="geometry" />
        </mxCell>
        <mxCell id="vJg0_uW5ztC2640ju3Qo-20" value="syncSend 同步" style="text;html=1;align=center;verticalAlign=middle;resizable=0;points=[];autosize=1;strokeColor=none;fillColor=none;rotation=90;" parent="1" vertex="1">
          <mxGeometry x="120" y="440" width="100" height="30" as="geometry" />
        </mxCell>
        <mxCell id="vJg0_uW5ztC2640ju3Qo-21" value="&lt;font color=&quot;#ff0000&quot;&gt;消息裂变，并且如果端&lt;br&gt;更多，需要裂变更多消息&lt;/font&gt;" style="text;html=1;align=center;verticalAlign=middle;resizable=0;points=[];autosize=1;strokeColor=none;fillColor=none;" parent="1" vertex="1">
          <mxGeometry x="220" y="490" width="160" height="40" as="geometry" />
        </mxCell>
        <mxCell id="vJg0_uW5ztC2640ju3Qo-22" value="ios：clientB" style="rounded=1;whiteSpace=wrap;html=1;" parent="1" vertex="1">
          <mxGeometry x="471" y="940" width="120" height="60" as="geometry" />
        </mxCell>
        <mxCell id="vJg0_uW5ztC2640ju3Qo-23" value="android：clientA" style="rounded=1;whiteSpace=wrap;html=1;" parent="1" vertex="1">
          <mxGeometry x="100" y="940" width="120" height="60" as="geometry" />
        </mxCell>
        <mxCell id="vJg0_uW5ztC2640ju3Qo-36" style="edgeStyle=orthogonalEdgeStyle;rounded=0;orthogonalLoop=1;jettySize=auto;html=1;entryX=0.5;entryY=0;entryDx=0;entryDy=0;" parent="1" source="vJg0_uW5ztC2640ju3Qo-27" target="vJg0_uW5ztC2640ju3Qo-34" edge="1">
          <mxGeometry relative="1" as="geometry" />
        </mxCell>
        <mxCell id="vJg0_uW5ztC2640ju3Qo-37" value="1.send" style="edgeLabel;html=1;align=center;verticalAlign=middle;resizable=0;points=[];" parent="vJg0_uW5ztC2640ju3Qo-36" vertex="1" connectable="0">
          <mxGeometry x="-0.2089" y="1" relative="1" as="geometry">
            <mxPoint x="8" y="-9" as="offset" />
          </mxGeometry>
        </mxCell>
        <mxCell id="vJg0_uW5ztC2640ju3Qo-27" value="ios：clientA" style="rounded=1;whiteSpace=wrap;html=1;" parent="1" vertex="1">
          <mxGeometry x="100" y="770" width="120" height="60" as="geometry" />
        </mxCell>
        <mxCell id="vJg0_uW5ztC2640ju3Qo-28" value="android：clientB" style="rounded=1;whiteSpace=wrap;html=1;" parent="1" vertex="1">
          <mxGeometry x="470" y="770" width="120" height="60" as="geometry" />
        </mxCell>
        <mxCell id="vJg0_uW5ztC2640ju3Qo-29" value="&lt;b&gt;&lt;font style=&quot;font-size: 20px;&quot;&gt;多端消息同步的简易实现&lt;/font&gt;&lt;/b&gt;" style="text;html=1;align=center;verticalAlign=middle;resizable=0;points=[];autosize=1;strokeColor=none;fillColor=none;" parent="1" vertex="1">
          <mxGeometry x="233" y="605" width="240" height="40" as="geometry" />
        </mxCell>
        <mxCell id="vJg0_uW5ztC2640ju3Qo-40" style="edgeStyle=orthogonalEdgeStyle;rounded=0;orthogonalLoop=1;jettySize=auto;html=1;exitX=0.5;exitY=1;exitDx=0;exitDy=0;entryX=1;entryY=0.5;entryDx=0;entryDy=0;" parent="1" source="vJg0_uW5ztC2640ju3Qo-34" target="vJg0_uW5ztC2640ju3Qo-23" edge="1">
          <mxGeometry relative="1" as="geometry">
            <Array as="points">
              <mxPoint x="344.5" y="970" />
            </Array>
          </mxGeometry>
        </mxCell>
        <mxCell id="vJg0_uW5ztC2640ju3Qo-34" value="" style="rounded=1;whiteSpace=wrap;html=1;fillColor=#dae8fc;strokeColor=#6c8ebf;" parent="1" vertex="1">
          <mxGeometry x="284.5" y="850" width="120" height="70" as="geometry" />
        </mxCell>
        <mxCell id="vJg0_uW5ztC2640ju3Qo-38" style="edgeStyle=orthogonalEdgeStyle;rounded=0;orthogonalLoop=1;jettySize=auto;html=1;" parent="1" source="vJg0_uW5ztC2640ju3Qo-35" target="vJg0_uW5ztC2640ju3Qo-27" edge="1">
          <mxGeometry relative="1" as="geometry">
            <mxPoint x="281.5" y="885" as="sourcePoint" />
          </mxGeometry>
        </mxCell>
        <mxCell id="vJg0_uW5ztC2640ju3Qo-39" value="2. ack" style="edgeLabel;html=1;align=center;verticalAlign=middle;resizable=0;points=[];" parent="vJg0_uW5ztC2640ju3Qo-38" vertex="1" connectable="0">
          <mxGeometry x="-0.0951" y="-3" relative="1" as="geometry">
            <mxPoint x="30" y="-2" as="offset" />
          </mxGeometry>
        </mxCell>
        <mxCell id="vJg0_uW5ztC2640ju3Qo-42" style="edgeStyle=orthogonalEdgeStyle;rounded=0;orthogonalLoop=1;jettySize=auto;html=1;entryX=0;entryY=0.5;entryDx=0;entryDy=0;" parent="1" source="vJg0_uW5ztC2640ju3Qo-35" target="vJg0_uW5ztC2640ju3Qo-22" edge="1">
          <mxGeometry relative="1" as="geometry">
            <Array as="points">
              <mxPoint x="451.5" y="885" />
              <mxPoint x="451.5" y="970" />
            </Array>
          </mxGeometry>
        </mxCell>
        <mxCell id="vJg0_uW5ztC2640ju3Qo-43" style="edgeStyle=orthogonalEdgeStyle;rounded=0;orthogonalLoop=1;jettySize=auto;html=1;entryX=0;entryY=0.5;entryDx=0;entryDy=0;" parent="1" source="vJg0_uW5ztC2640ju3Qo-35" target="vJg0_uW5ztC2640ju3Qo-28" edge="1">
          <mxGeometry relative="1" as="geometry">
            <Array as="points">
              <mxPoint x="451.5" y="885" />
              <mxPoint x="451.5" y="800" />
            </Array>
          </mxGeometry>
        </mxCell>
        <mxCell id="vJg0_uW5ztC2640ju3Qo-35" value="单聊服务" style="text;html=1;align=center;verticalAlign=middle;resizable=0;points=[];autosize=1;strokeColor=none;fillColor=none;" parent="1" vertex="1">
          <mxGeometry x="310.5" y="870" width="70" height="30" as="geometry" />
        </mxCell>
        <mxCell id="vJg0_uW5ztC2640ju3Qo-41" value="3. syncSend" style="text;html=1;align=center;verticalAlign=middle;resizable=0;points=[];autosize=1;strokeColor=none;fillColor=none;" parent="1" vertex="1">
          <mxGeometry x="231.5" y="940" width="90" height="30" as="geometry" />
        </mxCell>
        <mxCell id="vJg0_uW5ztC2640ju3Qo-44" value="4. send" style="text;html=1;align=center;verticalAlign=middle;resizable=0;points=[];autosize=1;strokeColor=none;fillColor=none;" parent="1" vertex="1">
          <mxGeometry x="395.5" y="860" width="60" height="30" as="geometry" />
        </mxCell>
        <mxCell id="0E8rnc2k6nuiJqw-8PHG-1" value="" style="endArrow=none;html=1;rounded=0;" parent="1" edge="1">
          <mxGeometry width="50" height="50" relative="1" as="geometry">
            <mxPoint x="10" y="670" as="sourcePoint" />
            <mxPoint x="720" y="670" as="targetPoint" />
          </mxGeometry>
        </mxCell>
        <mxCell id="0E8rnc2k6nuiJqw-8PHG-2" value="&lt;b&gt;&lt;font style=&quot;font-size: 16px;&quot;&gt;单聊消息分发流程&lt;/font&gt;&lt;/b&gt;" style="text;html=1;align=center;verticalAlign=middle;resizable=0;points=[];autosize=1;strokeColor=none;fillColor=none;" parent="1" vertex="1">
          <mxGeometry x="50" y="710" width="150" height="30" as="geometry" />
        </mxCell>
        <mxCell id="0E8rnc2k6nuiJqw-8PHG-3" value="&lt;b&gt;&lt;font style=&quot;font-size: 16px;&quot;&gt;群聊消息分发流程&lt;/font&gt;&lt;/b&gt;" style="text;html=1;align=center;verticalAlign=middle;resizable=0;points=[];autosize=1;strokeColor=none;fillColor=none;" parent="1" vertex="1">
          <mxGeometry x="46" y="1130" width="150" height="30" as="geometry" />
        </mxCell>
        <mxCell id="0E8rnc2k6nuiJqw-8PHG-7" style="edgeStyle=orthogonalEdgeStyle;rounded=0;orthogonalLoop=1;jettySize=auto;html=1;" parent="1" source="0E8rnc2k6nuiJqw-8PHG-4" target="0E8rnc2k6nuiJqw-8PHG-6" edge="1">
          <mxGeometry relative="1" as="geometry" />
        </mxCell>
        <mxCell id="0E8rnc2k6nuiJqw-8PHG-4" value="ios：clientA" style="rounded=1;whiteSpace=wrap;html=1;" parent="1" vertex="1">
          <mxGeometry x="96" y="1210" width="120" height="60" as="geometry" />
        </mxCell>
        <mxCell id="0E8rnc2k6nuiJqw-8PHG-9" style="edgeStyle=orthogonalEdgeStyle;rounded=0;orthogonalLoop=1;jettySize=auto;html=1;exitX=0;exitY=0.695;exitDx=0;exitDy=0;entryX=0.5;entryY=1;entryDx=0;entryDy=0;exitPerimeter=0;" parent="1" source="0E8rnc2k6nuiJqw-8PHG-6" target="0E8rnc2k6nuiJqw-8PHG-4" edge="1">
          <mxGeometry relative="1" as="geometry">
            <Array as="points">
              <mxPoint x="291" y="1320" />
              <mxPoint x="156" y="1320" />
            </Array>
          </mxGeometry>
        </mxCell>
        <mxCell id="0E8rnc2k6nuiJqw-8PHG-10" value="2. ack" style="edgeLabel;html=1;align=center;verticalAlign=middle;resizable=0;points=[];" parent="0E8rnc2k6nuiJqw-8PHG-9" vertex="1" connectable="0">
          <mxGeometry x="0.2117" y="-1" relative="1" as="geometry">
            <mxPoint as="offset" />
          </mxGeometry>
        </mxCell>
        <mxCell id="0E8rnc2k6nuiJqw-8PHG-22" style="edgeStyle=orthogonalEdgeStyle;rounded=0;orthogonalLoop=1;jettySize=auto;html=1;" parent="1" source="0E8rnc2k6nuiJqw-8PHG-6" target="0E8rnc2k6nuiJqw-8PHG-12" edge="1">
          <mxGeometry relative="1" as="geometry">
            <Array as="points">
              <mxPoint x="386" y="1210" />
            </Array>
          </mxGeometry>
        </mxCell>
        <mxCell id="0E8rnc2k6nuiJqw-8PHG-24" style="edgeStyle=orthogonalEdgeStyle;rounded=0;orthogonalLoop=1;jettySize=auto;html=1;" parent="1" source="0E8rnc2k6nuiJqw-8PHG-6" target="0E8rnc2k6nuiJqw-8PHG-23" edge="1">
          <mxGeometry relative="1" as="geometry">
            <Array as="points">
              <mxPoint x="326" y="1400" />
            </Array>
          </mxGeometry>
        </mxCell>
        <mxCell id="0E8rnc2k6nuiJqw-8PHG-6" value="群聊服务" style="rounded=1;whiteSpace=wrap;html=1;fillColor=#dae8fc;strokeColor=#6c8ebf;" parent="1" vertex="1">
          <mxGeometry x="271.5" y="1290" width="120" height="60" as="geometry" />
        </mxCell>
        <mxCell id="0E8rnc2k6nuiJqw-8PHG-8" value="1. send" style="text;html=1;align=center;verticalAlign=middle;resizable=0;points=[];autosize=1;strokeColor=none;fillColor=none;" parent="1" vertex="1">
          <mxGeometry x="216" y="1215" width="60" height="30" as="geometry" />
        </mxCell>
        <mxCell id="0E8rnc2k6nuiJqw-8PHG-25" style="rounded=0;orthogonalLoop=1;jettySize=auto;html=1;entryX=0.5;entryY=0;entryDx=0;entryDy=0;exitX=0.5;exitY=1;exitDx=0;exitDy=0;" parent="1" source="0E8rnc2k6nuiJqw-8PHG-12" target="0E8rnc2k6nuiJqw-8PHG-14" edge="1">
          <mxGeometry relative="1" as="geometry" />
        </mxCell>
        <mxCell id="0E8rnc2k6nuiJqw-8PHG-26" style="rounded=0;orthogonalLoop=1;jettySize=auto;html=1;entryX=0.5;entryY=0;entryDx=0;entryDy=0;exitX=0.5;exitY=1;exitDx=0;exitDy=0;" parent="1" source="0E8rnc2k6nuiJqw-8PHG-12" target="0E8rnc2k6nuiJqw-8PHG-16" edge="1">
          <mxGeometry relative="1" as="geometry" />
        </mxCell>
        <mxCell id="0E8rnc2k6nuiJqw-8PHG-27" style="rounded=0;orthogonalLoop=1;jettySize=auto;html=1;exitX=0.5;exitY=1;exitDx=0;exitDy=0;entryX=0.5;entryY=0;entryDx=0;entryDy=0;" parent="1" source="0E8rnc2k6nuiJqw-8PHG-12" target="0E8rnc2k6nuiJqw-8PHG-17" edge="1">
          <mxGeometry relative="1" as="geometry" />
        </mxCell>
        <mxCell id="0E8rnc2k6nuiJqw-8PHG-12" value="查询该群群成员" style="rounded=1;whiteSpace=wrap;html=1;" parent="1" vertex="1">
          <mxGeometry x="426" y="1180" width="120" height="60" as="geometry" />
        </mxCell>
        <mxCell id="0E8rnc2k6nuiJqw-8PHG-14" value="群成员 A" style="rounded=1;whiteSpace=wrap;html=1;shadow=1;" parent="1" vertex="1">
          <mxGeometry x="481" y="1290" width="120" height="60" as="geometry" />
        </mxCell>
        <mxCell id="0E8rnc2k6nuiJqw-8PHG-16" value="群成员 B" style="rounded=1;whiteSpace=wrap;html=1;shadow=1;" parent="1" vertex="1">
          <mxGeometry x="571" y="1290" width="120" height="60" as="geometry" />
        </mxCell>
        <mxCell id="0E8rnc2k6nuiJqw-8PHG-17" value="群成员 C" style="rounded=1;whiteSpace=wrap;html=1;shadow=1;" parent="1" vertex="1">
          <mxGeometry x="661" y="1290" width="120" height="60" as="geometry" />
        </mxCell>
        <mxCell id="0E8rnc2k6nuiJqw-8PHG-23" value="web：clientA" style="rounded=1;whiteSpace=wrap;html=1;" parent="1" vertex="1">
          <mxGeometry x="96" y="1370" width="120" height="60" as="geometry" />
        </mxCell>
        <mxCell id="0E8rnc2k6nuiJqw-8PHG-28" value="ios 端" style="text;html=1;align=center;verticalAlign=middle;resizable=0;points=[];autosize=1;strokeColor=none;fillColor=none;" parent="1" vertex="1">
          <mxGeometry x="419" y="1307.5" width="50" height="30" as="geometry" />
        </mxCell>
        <mxCell id="0E8rnc2k6nuiJqw-8PHG-29" value="web 端" style="text;html=1;align=center;verticalAlign=middle;resizable=0;points=[];autosize=1;strokeColor=none;fillColor=none;" parent="1" vertex="1">
          <mxGeometry x="415" y="1352.5" width="60" height="30" as="geometry" />
        </mxCell>
        <mxCell id="0E8rnc2k6nuiJqw-8PHG-36" value="&lt;font style=&quot;font-size: 20px;&quot;&gt;....&lt;/font&gt;" style="text;html=1;align=center;verticalAlign=middle;resizable=0;points=[];autosize=1;strokeColor=none;fillColor=none;" parent="1" vertex="1">
          <mxGeometry x="416" y="1390" width="50" height="40" as="geometry" />
        </mxCell>
      </root>
    </mxGraphModel>
  </diagram>
  <diagram id="SsZQ84EwMpSfjtLgl46w" name="第 3 页">
    <mxGraphModel dx="2193" dy="720" grid="1" gridSize="10" guides="1" tooltips="1" connect="1" arrows="1" fold="1" page="1" pageScale="1" pageWidth="827" pageHeight="1169" math="0" shadow="0">
      <root>
        <mxCell id="0" />
        <mxCell id="1" parent="0" />
        <mxCell id="8slmWs8Q8_qP5DZgCHHS-5" value="" style="rounded=1;whiteSpace=wrap;html=1;" vertex="1" parent="1">
          <mxGeometry x="270" y="150" width="480" height="100" as="geometry" />
        </mxCell>
        <mxCell id="8slmWs8Q8_qP5DZgCHHS-1" value="&lt;font style=&quot;font-size: 20px;&quot;&gt;&lt;b&gt;读扩散、写扩散&lt;/b&gt;&lt;/font&gt;" style="text;html=1;align=center;verticalAlign=middle;resizable=0;points=[];autosize=1;strokeColor=none;fillColor=none;" vertex="1" parent="1">
          <mxGeometry x="270" y="40" width="160" height="40" as="geometry" />
        </mxCell>
        <mxCell id="8slmWs8Q8_qP5DZgCHHS-9" style="edgeStyle=orthogonalEdgeStyle;rounded=0;orthogonalLoop=1;jettySize=auto;html=1;" edge="1" parent="1" source="8slmWs8Q8_qP5DZgCHHS-2" target="8slmWs8Q8_qP5DZgCHHS-5">
          <mxGeometry relative="1" as="geometry" />
        </mxCell>
        <mxCell id="8slmWs8Q8_qP5DZgCHHS-11" value="sendMsg" style="edgeLabel;html=1;align=center;verticalAlign=middle;resizable=0;points=[];" vertex="1" connectable="0" parent="8slmWs8Q8_qP5DZgCHHS-9">
          <mxGeometry x="-0.5602" relative="1" as="geometry">
            <mxPoint x="12" y="-10" as="offset" />
          </mxGeometry>
        </mxCell>
        <mxCell id="8slmWs8Q8_qP5DZgCHHS-2" value="A" style="rounded=1;whiteSpace=wrap;html=1;fillColor=#dae8fc;strokeColor=#6c8ebf;" vertex="1" parent="1">
          <mxGeometry x="70" y="120" width="120" height="60" as="geometry" />
        </mxCell>
        <mxCell id="8slmWs8Q8_qP5DZgCHHS-10" style="edgeStyle=orthogonalEdgeStyle;rounded=0;orthogonalLoop=1;jettySize=auto;html=1;" edge="1" parent="1" source="8slmWs8Q8_qP5DZgCHHS-3" target="8slmWs8Q8_qP5DZgCHHS-5">
          <mxGeometry relative="1" as="geometry" />
        </mxCell>
        <mxCell id="8slmWs8Q8_qP5DZgCHHS-12" value="sendMsg" style="edgeLabel;html=1;align=center;verticalAlign=middle;resizable=0;points=[];" vertex="1" connectable="0" parent="8slmWs8Q8_qP5DZgCHHS-10">
          <mxGeometry x="-0.5496" y="-2" relative="1" as="geometry">
            <mxPoint x="11" y="8" as="offset" />
          </mxGeometry>
        </mxCell>
        <mxCell id="8slmWs8Q8_qP5DZgCHHS-3" value="B" style="rounded=1;whiteSpace=wrap;html=1;fillColor=#fff2cc;strokeColor=#d6b656;" vertex="1" parent="1">
          <mxGeometry x="70" y="220" width="120" height="60" as="geometry" />
        </mxCell>
        <mxCell id="8slmWs8Q8_qP5DZgCHHS-4" value="msgId：1" style="rounded=1;whiteSpace=wrap;html=1;" vertex="1" parent="1">
          <mxGeometry x="290" y="170" width="120" height="60" as="geometry" />
        </mxCell>
        <mxCell id="8slmWs8Q8_qP5DZgCHHS-6" value="msgId：2" style="rounded=1;whiteSpace=wrap;html=1;" vertex="1" parent="1">
          <mxGeometry x="420" y="170" width="120" height="60" as="geometry" />
        </mxCell>
        <mxCell id="8slmWs8Q8_qP5DZgCHHS-7" value="msgId：3" style="rounded=1;whiteSpace=wrap;html=1;" vertex="1" parent="1">
          <mxGeometry x="550" y="170" width="120" height="60" as="geometry" />
        </mxCell>
        <mxCell id="8slmWs8Q8_qP5DZgCHHS-8" value="&lt;b&gt;&lt;font style=&quot;font-size: 20px;&quot;&gt;...&lt;/font&gt;&lt;/b&gt;" style="text;html=1;align=center;verticalAlign=middle;resizable=0;points=[];autosize=1;strokeColor=none;fillColor=none;" vertex="1" parent="1">
          <mxGeometry x="690" y="170" width="40" height="40" as="geometry" />
        </mxCell>
        <mxCell id="8slmWs8Q8_qP5DZgCHHS-13" value="" style="rounded=1;whiteSpace=wrap;html=1;" vertex="1" parent="1">
          <mxGeometry x="270" y="340" width="480" height="100" as="geometry" />
        </mxCell>
        <mxCell id="8slmWs8Q8_qP5DZgCHHS-14" style="edgeStyle=orthogonalEdgeStyle;rounded=0;orthogonalLoop=1;jettySize=auto;html=1;" edge="1" parent="1" source="8slmWs8Q8_qP5DZgCHHS-16" target="8slmWs8Q8_qP5DZgCHHS-13">
          <mxGeometry relative="1" as="geometry" />
        </mxCell>
        <mxCell id="8slmWs8Q8_qP5DZgCHHS-15" value="sendMsg" style="edgeLabel;html=1;align=center;verticalAlign=middle;resizable=0;points=[];" vertex="1" connectable="0" parent="8slmWs8Q8_qP5DZgCHHS-14">
          <mxGeometry x="-0.5602" relative="1" as="geometry">
            <mxPoint x="12" y="-10" as="offset" />
          </mxGeometry>
        </mxCell>
        <mxCell id="8slmWs8Q8_qP5DZgCHHS-16" value="A" style="rounded=1;whiteSpace=wrap;html=1;fillColor=#dae8fc;strokeColor=#6c8ebf;" vertex="1" parent="1">
          <mxGeometry x="70" y="310" width="120" height="60" as="geometry" />
        </mxCell>
        <mxCell id="8slmWs8Q8_qP5DZgCHHS-17" style="edgeStyle=orthogonalEdgeStyle;rounded=0;orthogonalLoop=1;jettySize=auto;html=1;" edge="1" parent="1" source="8slmWs8Q8_qP5DZgCHHS-19" target="8slmWs8Q8_qP5DZgCHHS-13">
          <mxGeometry relative="1" as="geometry" />
        </mxCell>
        <mxCell id="8slmWs8Q8_qP5DZgCHHS-18" value="sendMsg" style="edgeLabel;html=1;align=center;verticalAlign=middle;resizable=0;points=[];" vertex="1" connectable="0" parent="8slmWs8Q8_qP5DZgCHHS-17">
          <mxGeometry x="-0.5496" y="-2" relative="1" as="geometry">
            <mxPoint x="11" y="8" as="offset" />
          </mxGeometry>
        </mxCell>
        <mxCell id="8slmWs8Q8_qP5DZgCHHS-19" value="C" style="rounded=1;whiteSpace=wrap;html=1;fillColor=#ffe6cc;strokeColor=#d79b00;" vertex="1" parent="1">
          <mxGeometry x="70" y="410" width="120" height="60" as="geometry" />
        </mxCell>
        <mxCell id="8slmWs8Q8_qP5DZgCHHS-20" value="msgId：1" style="rounded=1;whiteSpace=wrap;html=1;" vertex="1" parent="1">
          <mxGeometry x="290" y="360" width="120" height="60" as="geometry" />
        </mxCell>
        <mxCell id="8slmWs8Q8_qP5DZgCHHS-21" value="msgId：2" style="rounded=1;whiteSpace=wrap;html=1;" vertex="1" parent="1">
          <mxGeometry x="420" y="360" width="120" height="60" as="geometry" />
        </mxCell>
        <mxCell id="8slmWs8Q8_qP5DZgCHHS-22" value="msgId：3" style="rounded=1;whiteSpace=wrap;html=1;" vertex="1" parent="1">
          <mxGeometry x="550" y="360" width="120" height="60" as="geometry" />
        </mxCell>
        <mxCell id="8slmWs8Q8_qP5DZgCHHS-23" value="&lt;b&gt;&lt;font style=&quot;font-size: 20px;&quot;&gt;...&lt;/font&gt;&lt;/b&gt;" style="text;html=1;align=center;verticalAlign=middle;resizable=0;points=[];autosize=1;strokeColor=none;fillColor=none;" vertex="1" parent="1">
          <mxGeometry x="690" y="360" width="40" height="40" as="geometry" />
        </mxCell>
        <mxCell id="8slmWs8Q8_qP5DZgCHHS-24" value="" style="rounded=1;whiteSpace=wrap;html=1;" vertex="1" parent="1">
          <mxGeometry x="270" y="530" width="480" height="100" as="geometry" />
        </mxCell>
        <mxCell id="8slmWs8Q8_qP5DZgCHHS-25" style="edgeStyle=orthogonalEdgeStyle;rounded=0;orthogonalLoop=1;jettySize=auto;html=1;" edge="1" parent="1" source="8slmWs8Q8_qP5DZgCHHS-27" target="8slmWs8Q8_qP5DZgCHHS-24">
          <mxGeometry relative="1" as="geometry" />
        </mxCell>
        <mxCell id="8slmWs8Q8_qP5DZgCHHS-26" value="sendMsg" style="edgeLabel;html=1;align=center;verticalAlign=middle;resizable=0;points=[];" vertex="1" connectable="0" parent="8slmWs8Q8_qP5DZgCHHS-25">
          <mxGeometry x="-0.5602" relative="1" as="geometry">
            <mxPoint x="12" y="-10" as="offset" />
          </mxGeometry>
        </mxCell>
        <mxCell id="8slmWs8Q8_qP5DZgCHHS-27" value="A" style="rounded=1;whiteSpace=wrap;html=1;fillColor=#dae8fc;strokeColor=#6c8ebf;" vertex="1" parent="1">
          <mxGeometry x="70" y="500" width="120" height="60" as="geometry" />
        </mxCell>
        <mxCell id="8slmWs8Q8_qP5DZgCHHS-28" style="edgeStyle=orthogonalEdgeStyle;rounded=0;orthogonalLoop=1;jettySize=auto;html=1;" edge="1" parent="1" source="8slmWs8Q8_qP5DZgCHHS-30" target="8slmWs8Q8_qP5DZgCHHS-24">
          <mxGeometry relative="1" as="geometry" />
        </mxCell>
        <mxCell id="8slmWs8Q8_qP5DZgCHHS-29" value="sendMsg" style="edgeLabel;html=1;align=center;verticalAlign=middle;resizable=0;points=[];" vertex="1" connectable="0" parent="8slmWs8Q8_qP5DZgCHHS-28">
          <mxGeometry x="-0.5496" y="-2" relative="1" as="geometry">
            <mxPoint x="11" y="8" as="offset" />
          </mxGeometry>
        </mxCell>
        <mxCell id="8slmWs8Q8_qP5DZgCHHS-30" value="N" style="rounded=1;whiteSpace=wrap;html=1;fillColor=#e1d5e7;strokeColor=#9673a6;" vertex="1" parent="1">
          <mxGeometry x="70" y="600" width="120" height="60" as="geometry" />
        </mxCell>
        <mxCell id="8slmWs8Q8_qP5DZgCHHS-31" value="msgId：1" style="rounded=1;whiteSpace=wrap;html=1;" vertex="1" parent="1">
          <mxGeometry x="290" y="550" width="120" height="60" as="geometry" />
        </mxCell>
        <mxCell id="8slmWs8Q8_qP5DZgCHHS-32" value="msgId：2" style="rounded=1;whiteSpace=wrap;html=1;" vertex="1" parent="1">
          <mxGeometry x="420" y="550" width="120" height="60" as="geometry" />
        </mxCell>
        <mxCell id="8slmWs8Q8_qP5DZgCHHS-33" value="msgId：3" style="rounded=1;whiteSpace=wrap;html=1;" vertex="1" parent="1">
          <mxGeometry x="550" y="550" width="120" height="60" as="geometry" />
        </mxCell>
        <mxCell id="8slmWs8Q8_qP5DZgCHHS-34" value="&lt;b&gt;&lt;font style=&quot;font-size: 20px;&quot;&gt;...&lt;/font&gt;&lt;/b&gt;" style="text;html=1;align=center;verticalAlign=middle;resizable=0;points=[];autosize=1;strokeColor=none;fillColor=none;" vertex="1" parent="1">
          <mxGeometry x="690" y="550" width="40" height="40" as="geometry" />
        </mxCell>
        <mxCell id="8slmWs8Q8_qP5DZgCHHS-35" value="QueueName：user_A_Id + user_B_Id" style="text;html=1;align=center;verticalAlign=middle;resizable=0;points=[];autosize=1;strokeColor=none;fillColor=none;" vertex="1" parent="1">
          <mxGeometry x="340" y="120" width="230" height="30" as="geometry" />
        </mxCell>
        <mxCell id="8slmWs8Q8_qP5DZgCHHS-36" value="QueueName：user_A_Id + user_C_Id" style="text;html=1;align=center;verticalAlign=middle;resizable=0;points=[];autosize=1;strokeColor=none;fillColor=none;" vertex="1" parent="1">
          <mxGeometry x="340" y="310" width="230" height="30" as="geometry" />
        </mxCell>
        <mxCell id="8slmWs8Q8_qP5DZgCHHS-37" value="QueueName：user_A_Id + user_N_Id" style="text;html=1;align=center;verticalAlign=middle;resizable=0;points=[];autosize=1;strokeColor=none;fillColor=none;" vertex="1" parent="1">
          <mxGeometry x="340" y="500" width="230" height="30" as="geometry" />
        </mxCell>
        <mxCell id="8slmWs8Q8_qP5DZgCHHS-62" style="edgeStyle=orthogonalEdgeStyle;rounded=0;orthogonalLoop=1;jettySize=auto;html=1;" edge="1" parent="1" source="8slmWs8Q8_qP5DZgCHHS-38" target="8slmWs8Q8_qP5DZgCHHS-41">
          <mxGeometry relative="1" as="geometry" />
        </mxCell>
        <mxCell id="8slmWs8Q8_qP5DZgCHHS-38" value="A" style="rounded=1;whiteSpace=wrap;html=1;fillColor=#f8cecc;strokeColor=#b85450;" vertex="1" parent="1">
          <mxGeometry x="50" y="1020" width="120" height="60" as="geometry" />
        </mxCell>
        <mxCell id="8slmWs8Q8_qP5DZgCHHS-61" style="edgeStyle=orthogonalEdgeStyle;rounded=0;orthogonalLoop=1;jettySize=auto;html=1;entryX=0;entryY=0.5;entryDx=0;entryDy=0;" edge="1" parent="1" source="8slmWs8Q8_qP5DZgCHHS-39" target="8slmWs8Q8_qP5DZgCHHS-47">
          <mxGeometry relative="1" as="geometry" />
        </mxCell>
        <mxCell id="8slmWs8Q8_qP5DZgCHHS-63" style="edgeStyle=orthogonalEdgeStyle;rounded=0;orthogonalLoop=1;jettySize=auto;html=1;entryX=0.5;entryY=1;entryDx=0;entryDy=0;fillColor=#fff2cc;strokeColor=#d6b656;strokeWidth=3;sketch=1;curveFitting=1;jiggle=2;" edge="1" parent="1" source="8slmWs8Q8_qP5DZgCHHS-39" target="8slmWs8Q8_qP5DZgCHHS-38">
          <mxGeometry relative="1" as="geometry" />
        </mxCell>
        <mxCell id="8slmWs8Q8_qP5DZgCHHS-39" value="B" style="rounded=1;whiteSpace=wrap;html=1;fillColor=#fff2cc;strokeColor=#d6b656;" vertex="1" parent="1">
          <mxGeometry x="50" y="1190" width="120" height="60" as="geometry" />
        </mxCell>
        <mxCell id="8slmWs8Q8_qP5DZgCHHS-59" style="edgeStyle=orthogonalEdgeStyle;rounded=0;orthogonalLoop=1;jettySize=auto;html=1;" edge="1" parent="1" source="8slmWs8Q8_qP5DZgCHHS-40" target="8slmWs8Q8_qP5DZgCHHS-53">
          <mxGeometry relative="1" as="geometry" />
        </mxCell>
        <mxCell id="8slmWs8Q8_qP5DZgCHHS-65" style="edgeStyle=orthogonalEdgeStyle;rounded=0;orthogonalLoop=1;jettySize=auto;html=1;entryX=0;entryY=0.5;entryDx=0;entryDy=0;fillColor=#d5e8d4;strokeColor=#82b366;strokeWidth=3;" edge="1" parent="1" source="8slmWs8Q8_qP5DZgCHHS-40" target="8slmWs8Q8_qP5DZgCHHS-38">
          <mxGeometry relative="1" as="geometry">
            <Array as="points">
              <mxPoint x="20" y="1400" />
              <mxPoint x="20" y="1050" />
            </Array>
          </mxGeometry>
        </mxCell>
        <mxCell id="8slmWs8Q8_qP5DZgCHHS-40" value="C" style="rounded=1;whiteSpace=wrap;html=1;fillColor=#d5e8d4;strokeColor=#82b366;" vertex="1" parent="1">
          <mxGeometry x="50" y="1370" width="120" height="60" as="geometry" />
        </mxCell>
        <mxCell id="8slmWs8Q8_qP5DZgCHHS-41" value="" style="rounded=1;whiteSpace=wrap;html=1;" vertex="1" parent="1">
          <mxGeometry x="270" y="1000" width="750" height="100" as="geometry" />
        </mxCell>
        <mxCell id="8slmWs8Q8_qP5DZgCHHS-42" value="msgId：1" style="rounded=1;whiteSpace=wrap;html=1;" vertex="1" parent="1">
          <mxGeometry x="290" y="1020" width="120" height="60" as="geometry" />
        </mxCell>
        <mxCell id="8slmWs8Q8_qP5DZgCHHS-43" value="msgId：2" style="rounded=1;whiteSpace=wrap;html=1;" vertex="1" parent="1">
          <mxGeometry x="420" y="1020" width="120" height="60" as="geometry" />
        </mxCell>
        <mxCell id="8slmWs8Q8_qP5DZgCHHS-44" value="msgId：3" style="rounded=1;whiteSpace=wrap;html=1;" vertex="1" parent="1">
          <mxGeometry x="550" y="1020" width="120" height="60" as="geometry" />
        </mxCell>
        <mxCell id="8slmWs8Q8_qP5DZgCHHS-45" value="&lt;b&gt;&lt;font style=&quot;font-size: 20px;&quot;&gt;...&lt;/font&gt;&lt;/b&gt;" style="text;html=1;align=center;verticalAlign=middle;resizable=0;points=[];autosize=1;strokeColor=none;fillColor=none;" vertex="1" parent="1">
          <mxGeometry x="690" y="1020" width="40" height="40" as="geometry" />
        </mxCell>
        <mxCell id="8slmWs8Q8_qP5DZgCHHS-46" value="QueueName：user_A_Id" style="text;html=1;align=center;verticalAlign=middle;resizable=0;points=[];autosize=1;strokeColor=#b85450;fillColor=#f8cecc;" vertex="1" parent="1">
          <mxGeometry x="375" y="970" width="160" height="30" as="geometry" />
        </mxCell>
        <mxCell id="8slmWs8Q8_qP5DZgCHHS-47" value="" style="rounded=1;whiteSpace=wrap;html=1;" vertex="1" parent="1">
          <mxGeometry x="270" y="1170" width="640" height="100" as="geometry" />
        </mxCell>
        <mxCell id="8slmWs8Q8_qP5DZgCHHS-48" value="msgId：1" style="rounded=1;whiteSpace=wrap;html=1;" vertex="1" parent="1">
          <mxGeometry x="290" y="1190" width="120" height="60" as="geometry" />
        </mxCell>
        <mxCell id="8slmWs8Q8_qP5DZgCHHS-49" value="msgId：2" style="rounded=1;whiteSpace=wrap;html=1;" vertex="1" parent="1">
          <mxGeometry x="420" y="1190" width="120" height="60" as="geometry" />
        </mxCell>
        <mxCell id="8slmWs8Q8_qP5DZgCHHS-50" value="msgId：3" style="rounded=1;whiteSpace=wrap;html=1;" vertex="1" parent="1">
          <mxGeometry x="550" y="1190" width="120" height="60" as="geometry" />
        </mxCell>
        <mxCell id="8slmWs8Q8_qP5DZgCHHS-51" value="&lt;b&gt;&lt;font style=&quot;font-size: 20px;&quot;&gt;...&lt;/font&gt;&lt;/b&gt;" style="text;html=1;align=center;verticalAlign=middle;resizable=0;points=[];autosize=1;strokeColor=none;fillColor=none;" vertex="1" parent="1">
          <mxGeometry x="690" y="1190" width="40" height="40" as="geometry" />
        </mxCell>
        <mxCell id="8slmWs8Q8_qP5DZgCHHS-52" value="QueueName：user_B_Id" style="text;html=1;align=center;verticalAlign=middle;resizable=0;points=[];autosize=1;strokeColor=#d6b656;fillColor=#fff2cc;" vertex="1" parent="1">
          <mxGeometry x="375" y="1140" width="160" height="30" as="geometry" />
        </mxCell>
        <mxCell id="8slmWs8Q8_qP5DZgCHHS-53" value="" style="rounded=1;whiteSpace=wrap;html=1;" vertex="1" parent="1">
          <mxGeometry x="270" y="1350" width="640" height="100" as="geometry" />
        </mxCell>
        <mxCell id="8slmWs8Q8_qP5DZgCHHS-54" value="msgId：1" style="rounded=1;whiteSpace=wrap;html=1;" vertex="1" parent="1">
          <mxGeometry x="290" y="1370" width="120" height="60" as="geometry" />
        </mxCell>
        <mxCell id="8slmWs8Q8_qP5DZgCHHS-55" value="msgId：2" style="rounded=1;whiteSpace=wrap;html=1;" vertex="1" parent="1">
          <mxGeometry x="420" y="1370" width="120" height="60" as="geometry" />
        </mxCell>
        <mxCell id="8slmWs8Q8_qP5DZgCHHS-56" value="msgId：3" style="rounded=1;whiteSpace=wrap;html=1;" vertex="1" parent="1">
          <mxGeometry x="550" y="1370" width="120" height="60" as="geometry" />
        </mxCell>
        <mxCell id="8slmWs8Q8_qP5DZgCHHS-57" value="&lt;b&gt;&lt;font style=&quot;font-size: 20px;&quot;&gt;...&lt;/font&gt;&lt;/b&gt;" style="text;html=1;align=center;verticalAlign=middle;resizable=0;points=[];autosize=1;strokeColor=none;fillColor=none;" vertex="1" parent="1">
          <mxGeometry x="690" y="1370" width="40" height="40" as="geometry" />
        </mxCell>
        <mxCell id="8slmWs8Q8_qP5DZgCHHS-58" value="QueueName：user_C_Id" style="text;html=1;align=center;verticalAlign=middle;resizable=0;points=[];autosize=1;strokeColor=#82b366;fillColor=#d5e8d4;" vertex="1" parent="1">
          <mxGeometry x="375" y="1320" width="160" height="30" as="geometry" />
        </mxCell>
        <mxCell id="8slmWs8Q8_qP5DZgCHHS-64" value="B 与 A 通讯" style="text;html=1;align=center;verticalAlign=middle;resizable=0;points=[];autosize=1;strokeColor=none;fillColor=none;" vertex="1" parent="1">
          <mxGeometry x="110" y="1125" width="80" height="30" as="geometry" />
        </mxCell>
        <mxCell id="8slmWs8Q8_qP5DZgCHHS-66" value="C 与 A 通讯" style="text;html=1;align=center;verticalAlign=middle;resizable=0;points=[];autosize=1;strokeColor=none;fillColor=none;" vertex="1" parent="1">
          <mxGeometry x="-60" y="1195" width="90" height="30" as="geometry" />
        </mxCell>
        <mxCell id="8slmWs8Q8_qP5DZgCHHS-73" value="msgId：C to A" style="rounded=1;whiteSpace=wrap;html=1;fillColor=#d5e8d4;strokeColor=#82b366;" vertex="1" parent="1">
          <mxGeometry x="750" y="1370" width="120" height="60" as="geometry" />
        </mxCell>
        <mxCell id="8slmWs8Q8_qP5DZgCHHS-74" value="msgId：B to A" style="rounded=1;whiteSpace=wrap;html=1;fillColor=#fff2cc;strokeColor=#d6b656;" vertex="1" parent="1">
          <mxGeometry x="750" y="1190" width="120" height="60" as="geometry" />
        </mxCell>
        <mxCell id="8slmWs8Q8_qP5DZgCHHS-75" value="msgId：C to A" style="rounded=1;whiteSpace=wrap;html=1;fillColor=#d5e8d4;strokeColor=#82b366;" vertex="1" parent="1">
          <mxGeometry x="750" y="1020" width="120" height="60" as="geometry" />
        </mxCell>
        <mxCell id="8slmWs8Q8_qP5DZgCHHS-77" value="消息落入自己的队列中" style="text;html=1;align=center;verticalAlign=middle;resizable=0;points=[];autosize=1;strokeColor=none;fillColor=none;" vertex="1" parent="1">
          <mxGeometry x="300" y="1465" width="140" height="30" as="geometry" />
        </mxCell>
        <mxCell id="8slmWs8Q8_qP5DZgCHHS-79" value="C 对 A 的消息落入消息队列中" style="text;html=1;align=center;verticalAlign=middle;resizable=0;points=[];autosize=1;strokeColor=#82b366;fillColor=#d5e8d4;" vertex="1" parent="1">
          <mxGeometry x="300" y="935" width="180" height="30" as="geometry" />
        </mxCell>
        <mxCell id="8slmWs8Q8_qP5DZgCHHS-76" style="edgeStyle=orthogonalEdgeStyle;rounded=0;orthogonalLoop=1;jettySize=auto;html=1;exitX=0.5;exitY=1;exitDx=0;exitDy=0;entryX=0.5;entryY=1;entryDx=0;entryDy=0;fillColor=#d5e8d4;strokeColor=#82b366;strokeWidth=3;" edge="1" parent="1" source="8slmWs8Q8_qP5DZgCHHS-40" target="8slmWs8Q8_qP5DZgCHHS-73">
          <mxGeometry relative="1" as="geometry">
            <Array as="points">
              <mxPoint x="110" y="1470" />
              <mxPoint x="810" y="1470" />
            </Array>
          </mxGeometry>
        </mxCell>
        <mxCell id="8slmWs8Q8_qP5DZgCHHS-82" value="msgId：B to A" style="rounded=1;whiteSpace=wrap;html=1;fillColor=#fff2cc;strokeColor=#d6b656;" vertex="1" parent="1">
          <mxGeometry x="880" y="1020" width="120" height="60" as="geometry" />
        </mxCell>
        <mxCell id="8slmWs8Q8_qP5DZgCHHS-83" style="edgeStyle=orthogonalEdgeStyle;rounded=0;orthogonalLoop=1;jettySize=auto;html=1;entryX=0.5;entryY=0;entryDx=0;entryDy=0;fillColor=#fff2cc;strokeColor=#d6b656;strokeWidth=3;" edge="1" parent="1" source="8slmWs8Q8_qP5DZgCHHS-38" target="8slmWs8Q8_qP5DZgCHHS-82">
          <mxGeometry relative="1" as="geometry">
            <Array as="points">
              <mxPoint x="110" y="920" />
              <mxPoint x="940" y="920" />
            </Array>
          </mxGeometry>
        </mxCell>
        <mxCell id="8slmWs8Q8_qP5DZgCHHS-84" value="B 对 A 的消息落入消息队列中" style="text;html=1;align=center;verticalAlign=middle;resizable=0;points=[];autosize=1;strokeColor=#d6b656;fillColor=#fff2cc;" vertex="1" parent="1">
          <mxGeometry x="300" y="890" width="180" height="30" as="geometry" />
        </mxCell>
        <mxCell id="8slmWs8Q8_qP5DZgCHHS-80" style="edgeStyle=orthogonalEdgeStyle;rounded=0;orthogonalLoop=1;jettySize=auto;html=1;entryX=0.5;entryY=1;entryDx=0;entryDy=0;fillColor=#fff2cc;strokeColor=#d6b656;strokeWidth=3;" edge="1" parent="1" source="8slmWs8Q8_qP5DZgCHHS-39" target="8slmWs8Q8_qP5DZgCHHS-74">
          <mxGeometry relative="1" as="geometry">
            <Array as="points">
              <mxPoint x="110" y="1290" />
              <mxPoint x="810" y="1290" />
            </Array>
          </mxGeometry>
        </mxCell>
        <mxCell id="8slmWs8Q8_qP5DZgCHHS-81" value="消息落入自己队列中" style="edgeLabel;html=1;align=center;verticalAlign=middle;resizable=0;points=[];" vertex="1" connectable="0" parent="8slmWs8Q8_qP5DZgCHHS-80">
          <mxGeometry x="-0.217" y="-1" relative="1" as="geometry">
            <mxPoint as="offset" />
          </mxGeometry>
        </mxCell>
        <mxCell id="8slmWs8Q8_qP5DZgCHHS-78" style="edgeStyle=orthogonalEdgeStyle;rounded=0;orthogonalLoop=1;jettySize=auto;html=1;entryX=0.5;entryY=0;entryDx=0;entryDy=0;fillColor=#d5e8d4;strokeColor=#82b366;strokeWidth=3;" edge="1" parent="1" source="8slmWs8Q8_qP5DZgCHHS-38" target="8slmWs8Q8_qP5DZgCHHS-75">
          <mxGeometry relative="1" as="geometry">
            <Array as="points">
              <mxPoint x="110" y="960" />
              <mxPoint x="810" y="960" />
            </Array>
          </mxGeometry>
        </mxCell>
      </root>
    </mxGraphModel>
  </diagram>
</mxfile>
